<?xml version="1.0" encoding="UTF-8"?>
<svg id="Layer_2" data-name="Layer 2" xmlns="http://www.w3.org/2000/svg" viewBox="0 0 120.09 121.63">
  <defs>
    <style>
      .cls-1 {
        fill: #fcb515;
      }

      .cls-2 {
        fill: #fdb614;
      }
    </style>
  </defs>
  <g id="Layer_1-2" data-name="Layer 1">
    <path class="cls-2" d="M54.35,121.63C24.38,121.63,0,97.25,0,67.28S24.38,12.93,54.35,12.93s54.35,24.38,54.35,54.35-24.38,54.35-54.35,54.35Zm0-101.71c-26.11,0-47.35,21.24-47.35,47.35s21.24,47.35,47.35,47.35,47.35-21.24,47.35-47.35S80.46,19.93,54.35,19.93Z"/>
    <g>
      <path class="cls-2" d="M20.5,75.31c-2.52,0-3.69-1.75-3.73-3.42-.13-5.58-.18-13.59,0-18.76,.04-1.35,1.08-3.33,3.73-3.33,2.39,0,3.6,1.62,3.56,3.38-.14,4.95-.18,12.28,0,19.17,0,.99-.9,2.97-3.56,2.97Zm16.96-18.72c-.23,.04-.45,.09-.63,.13,.31,1.26,.5,2.56,.5,3.96,0,3.02-.14,9-.14,11.43,0,1.04-1.03,3.2-3.6,3.2-2.75,0-3.73-1.75-3.73-3.24,0-2.79,.18-8.64,.18-10.93,0-2.83-.72-3.82-2.16-4.09-1.62-.32-2.7-1.08-2.88-3.1-.23-2.34,1.53-3.87,2.92-3.96,2.11-.13,3.92,.36,5.31,1.31,1.67-.85,3.73-1.35,5-1.35,8.23,0,11.34,6.07,11.34,12.19,0,2.92-.04,7.2-.13,9.63-.04,1.26-.72,3.6-3.69,3.6-2.7,0-3.69-1.75-3.65-3.19,.09-3.2,.18-7.33,.18-9.63,0-4-1.26-6.34-4.81-5.94Z"/>
      <path class="cls-2" d="M73.06,75.31c-2.56,0-3.91-1.75-3.96-3.42-.13-5.58-.18-13.59,0-18.76,.04-1.35,1.31-3.33,3.96-3.33,2.38,0,3.83,1.67,3.78,3.38-.13,4.95-.18,12.28,0,19.17,0,.99-1.17,2.97-3.78,2.97Zm9.13-17.86h-.85c-1.8,0-3.2-1.71-3.2-3.78s1.4-3.73,3.1-3.73h1.31c7.74,0,9.49,5.04,9.49,11.2,0,3.02-.04,8.42-.13,10.89-.04,1.4-.72,3.29-3.87,3.29-2.74,0-3.87-1.84-3.87-3.38,0-2.83,.18-8.05,.18-10.35,0-2.47-.72-4.14-2.16-4.14Z"/>
    </g>
    <path class="cls-2" d="M54.35,104.48c-19.04,0-26.38-14.58-26.69-15.2-.85-1.74-.13-3.83,1.61-4.68,1.73-.84,3.82-.13,4.67,1.59,.25,.5,5.87,11.29,20.41,11.29s20.18-10.83,20.41-11.29c.87-1.72,2.96-2.43,4.69-1.57,1.72,.86,2.44,2.93,1.59,4.66-.3,.62-7.65,15.2-26.69,15.2Z"/>
    <path class="cls-2" d="M62.17,43.16s-.04,0-.07,0c-5.74-.15-9.64-3.03-10.97-8.12-.42-1.61-.55-3.36-.44-5.14-3.41-.39-6.4-1.75-8.56-4-2.3-2.39-3.38-5.23-3.22-8.44,.43-8.47,9.82-16.53,10.21-16.87,1.05-.89,2.63-.76,3.52,.29,.89,1.05,.76,2.63-.29,3.52h0c-2.26,1.93-8.2,8.08-8.46,13.32-.09,1.8,.51,3.34,1.83,4.72,1.4,1.46,3.43,2.31,5.8,2.53,1.48-5.34,4.63-10.25,7.93-12.22,2.77-1.65,5.63-1.4,7.84,.67,2.1,1.96,2.9,4.41,2.28,6.9-.97,3.87-5.4,7.37-11.27,8.93-.87,.23-1.74,.41-2.6,.54-.13,1.42-.06,2.79,.25,3.98,.76,2.9,2.75,4.29,6.26,4.38,1.38,.04,2.47,1.18,2.43,2.56-.04,1.36-1.15,2.44-2.5,2.44Zm.92-26.48c-.26,0-.6,.1-1.06,.37-1.91,1.14-3.84,4.07-5.06,7.4,.02,0,.04-.01,.06-.02,4.43-1.18,7.28-3.62,7.71-5.32,.08-.3,.25-1-.85-2.03-.2-.18-.42-.39-.81-.39Z"/>
    <g>
      <path class="cls-1" d="M109.79,44.04c.38-.42,1.16-1.17,1.88-1.75-1.15,.44-1.55,.67-2.09,.95-.27,.14-.57-.03-.73-.32-.18-.33-.08-.6,.16-.73,.77-.42,3.48-1.59,4.83-1.96,.32-.09,.54,.1,.66,.4,.14,.33,0,.56-.14,.68-1.52,1.27-2.8,2.46-3.11,2.77,.44,.03,2.19-.03,4.17-.18,.18,0,.44,.05,.57,.37,.13,.31,.1,.6-.19,.76-1.23,.67-3.99,1.74-4.82,1.98-.26,.07-.52-.05-.63-.42-.09-.31,0-.64,.3-.73,.58-.17,1.02-.3,2.15-.78-.92,.09-2,.09-2.57,.06-.23-.02-.45-.15-.56-.42-.1-.25-.04-.5,.11-.68Z"/>
      <path class="cls-1" d="M115.76,47.76c-.09-.28,.13-.57,.48-.68,.34-.1,.72,0,.81,.3l.52,1.71c.1,.34-.18,.59-.49,.69-.28,.08-.68,.09-.79-.3l-.06-.21c-.93,.31-2.26,.72-3.26,.99l.07,.21c.1,.31-.13,.58-.5,.69-.37,.11-.7-.01-.79-.3l-.52-1.71c-.09-.29,.12-.58,.48-.69,.35-.11,.72,0,.81,.3l.06,.19c.99-.28,2.28-.66,3.27-.98l-.06-.2Z"/>
      <path class="cls-1" d="M115.87,53.3c-.74,.21-1.71,.44-2.67,.74-.27,.08-.62-.09-.74-.46-.11-.34,.04-.74,.34-.83,.84-.26,3.55-.92,4.94-1.03,.32-.02,.64,.18,.69,.62,.02,.18-.02,.48-.22,.63-1.22,.95-2.17,1.74-2.9,2.45,.98-.21,2.13-.49,3.01-.77,.29-.1,.58,.15,.69,.46,.09,.28,.05,.72-.22,.82-1.33,.46-4.14,.97-5.01,1.07-.35,.03-.6-.15-.7-.47-.1-.31,0-.56,.12-.71,.69-.79,1.94-1.88,2.68-2.5Z"/>
      <path class="cls-1" d="M115.04,60.9l.02,.2c.04,.41-.22,.59-.63,.63-.36,.04-.67-.13-.7-.48l-.04-.38c-.14-1.35,.94-2.07,2.02-2.22,.49-.07,2.18-.23,3.35-.24,.22,0,.52,.16,.56,.64,.05,.49-.25,.73-.49,.73-.91,.01-2.77,.13-3.23,.22-.68,.13-.91,.45-.86,.9Zm4.9,1.16c.06,.57-.27,.73-.49,.77-1.15,.21-3.8,.41-4.89,.44-.25,0-.62-.07-.67-.61-.05-.49,.26-.74,.54-.75,1.22-.06,3.55-.24,4.85-.43,.22-.03,.62,.12,.67,.6Z"/>
      <path class="cls-1" d="M116.1,71c.02-.34,.27-.64,.7-.61,.33,.02,.65,.26,.62,.66v.15c-.04,.48,.07,.88,.57,.92,.46,.03,.63-.38,.65-.75l.06-.92c.01-.18-.16-.2-.2-.21-1.3-.14-2.97-.2-3.98-.23-.26,0-.54-.25-.51-.71,.03-.58,.39-.66,.58-.66,.71-.01,4.29,.2,4.94,.35,.42,.09,.56,.51,.55,.72l-.1,1.6c-.1,1.72-1.08,2.22-2.08,2.16-1.02-.06-1.91-.72-1.82-2.14l.02-.33Z"/>
      <path class="cls-1" d="M113.14,76.96c.28-1.67,1.87-2.29,3.5-2.02,1.63,.27,2.96,1.29,2.67,3.05-.3,1.78-1.99,2.29-3.52,2.04-1.67-.28-2.93-1.35-2.65-3.06Zm4.84,.79c.12-.76-.38-1.26-1.58-1.45-1.11-.18-1.79,.11-1.92,.88-.13,.8,.42,1.29,1.52,1.48,1.16,.19,1.83-.1,1.97-.91Z"/>
      <path class="cls-1" d="M113.98,83.7c.09-.33,.4-.57,.81-.46,.32,.09,.58,.39,.47,.78l-.04,.15c-.13,.46-.1,.88,.38,1.02,.45,.12,.7-.24,.79-.59l.24-.89c.05-.18-.11-.23-.16-.24-1.24-.41-2.87-.81-3.85-1.05-.25-.06-.48-.36-.35-.8,.15-.56,.52-.56,.71-.53,.7,.13,4.16,1.09,4.77,1.36,.39,.17,.44,.62,.39,.82l-.43,1.55c-.46,1.66-1.52,1.95-2.49,1.68-.62-.17-1.13-.56-1.34-1.16-.79,.12-1.42,.2-1.88,.25-.32,.04-.58-.35-.6-.64-.03-.3,.13-.67,.47-.71,.52-.08,1.14-.12,2.01-.23l.08-.31Z"/>
      <path class="cls-1" d="M115.25,88.33c.09-.25,.42-.37,.79-.23,.32,.12,.57,.43,.47,.71l-1.28,3.38c-.11,.28-.41,.37-.81,.22-.33-.12-.55-.41-.44-.71l.39-1.02c-1.23-.45-2.92-1.09-3.91-1.48-.33-.12-.44-.49-.28-.87,.16-.37,.47-.54,.78-.42,1,.39,2.71,1.06,3.9,1.48l.4-1.05Z"/>
      <path class="cls-1" d="M113.68,94.3c.32,.23,.32,.69,.23,.87l-1.31,2.67c-.12,.24-.47,.38-.84,.2-.34-.17-.5-.5-.36-.8l.95-1.93c.07-.14-.08-.23-.12-.25-1.14-.63-2.55-1.29-3.5-1.7-.31-.13-.49-.48-.29-.9,.25-.52,.7-.42,.86-.35,.66,.28,3.82,1.81,4.37,2.19Zm-3.82,.41c.11-.22,.48-.31,.82-.14,.31,.15,.5,.52,.39,.74l-.68,1.39c-.09,.19-.44,.34-.81,.15-.31-.15-.53-.49-.4-.75l.68-1.39Z"/>
      <path class="cls-1" d="M104.96,98.71c.9-1.44,2.6-1.41,4.01-.53,1.41,.88,2.24,2.32,1.3,3.83-.96,1.53-2.71,1.36-4.03,.54-1.43-.89-2.19-2.37-1.28-3.84Zm4.17,2.57c.4-.66,.12-1.31-.9-1.94-.95-.59-1.69-.58-2.11,.08-.43,.69-.11,1.35,.84,1.95,1,.62,1.73,.61,2.16-.09Z"/>
      <path class="cls-1" d="M103.32,104.25c-.11-.09-.25-.09-.35,0-.15,.13-.31,.31-.46,.51-.28,.37-.47,.71-.56,1.01-.09,.32-.47,.59-.89,.38-.32-.14-.47-.43-.42-.71,.08-.52,.49-1.11,.81-1.53,.34-.44,.76-.85,1.15-1.08,.22-.13,.59-.24,.94-.07,.6,.3,3.31,2.45,3.73,2.88,.22,.23,.12,.63-.15,.88-.31,.3-.65,.24-.8,.1-.34-.31-2.19-1.83-3-2.39Z"/>
      <path class="cls-1" d="M102.79,109.75c.2-.22,.56-.19,.83,.06,.26,.24,.37,.62,.16,.85l-1.2,1.32c-.24,.26-.6,.15-.84-.07-.21-.19-.42-.53-.15-.84l.15-.16c-.75-.63-1.78-1.56-2.53-2.28l-.15,.17c-.22,.24-.56,.18-.85-.08-.29-.26-.35-.61-.15-.82l1.2-1.32c.2-.23,.56-.19,.83,.05,.27,.25,.37,.62,.16,.85l-.13,.14c.74,.7,1.74,1.62,2.52,2.29l.14-.15Z"/>
      <path class="cls-1" d="M94.98,110.85c1.24-1.15,2.88-.68,4.01,.54,1.13,1.21,1.55,2.83,.25,4.04-1.32,1.23-2.97,.6-4.03-.54-1.15-1.24-1.49-2.86-.23-4.04Zm3.35,3.58c.56-.53,.46-1.23-.36-2.11-.76-.82-1.48-1.01-2.05-.47-.59,.55-.46,1.28,.3,2.1,.8,.86,1.51,1.04,2.11,.49Z"/>
    </g>
    <path class="cls-2" d="M82.08,91.24c-.7,0-1.41-.21-2.02-.65l-6.07-4.31c-1.58-1.12-1.95-3.3-.83-4.88,1.12-1.58,3.3-1.95,4.88-.83l6.07,4.31c1.58,1.12,1.95,3.3,.83,4.88-.68,.96-1.76,1.47-2.86,1.47Z"/>
    <path class="cls-2" d="M25.56,90.24c-1.09,0-2.17-.51-2.86-1.47-1.12-1.58-.75-3.76,.83-4.88l6.07-4.31c1.57-1.12,3.76-.75,4.88,.83,1.12,1.58,.75,3.76-.83,4.88l-6.07,4.31c-.61,.44-1.32,.65-2.02,.65Z"/>
  </g>
</svg>